<mxfile host="app.diagrams.net" agent="Mozilla/5.0 (Windows NT 10.0; Win64; x64) AppleWebKit/537.36 (KHTML, like Gecko) Chrome/128.0.0.0 Safari/537.36" version="24.7.14">
  <diagram name="Page-1" id="c7488fd3-1785-93aa-aadb-54a6760d102a">
    <mxGraphModel dx="2440" dy="1347" grid="1" gridSize="10" guides="1" tooltips="1" connect="1" arrows="1" fold="1" page="1" pageScale="1" pageWidth="1100" pageHeight="850" background="none" math="0" shadow="0">
      <root>
        <mxCell id="0" />
        <mxCell id="1" parent="0" />
        <mxCell id="2b4e8129b02d487f-1" value="Imprimir e Codificar Selos - Jan 2025" style="swimlane;html=1;childLayout=stackLayout;horizontal=1;startSize=20;horizontalStack=0;rounded=0;shadow=0;labelBackgroundColor=none;strokeWidth=1;fontFamily=Verdana;fontSize=8;align=center;" parent="1" vertex="1">
          <mxGeometry x="100" y="70" width="1200" height="250" as="geometry" />
        </mxCell>
        <mxCell id="2b4e8129b02d487f-2" value="Pharos" style="swimlane;html=1;startSize=20;horizontal=0;" parent="2b4e8129b02d487f-1" vertex="1">
          <mxGeometry y="20" width="1200" height="150" as="geometry" />
        </mxCell>
        <mxCell id="77CGy44zf38P_ugC092b-19" value="" style="ellipse;whiteSpace=wrap;html=1;rounded=0;shadow=0;labelBackgroundColor=none;strokeWidth=1;fontFamily=Verdana;fontSize=8;align=center;" parent="2b4e8129b02d487f-2" vertex="1">
          <mxGeometry x="1150" y="58.370000000000005" width="30" height="30" as="geometry" />
        </mxCell>
        <mxCell id="2b4e8129b02d487f-3" value="INMETRO" style="swimlane;html=1;startSize=20;horizontal=0;" parent="2b4e8129b02d487f-1" vertex="1" collapsed="1">
          <mxGeometry y="170" width="1200" height="40" as="geometry">
            <mxRectangle y="170" width="1200" height="150" as="alternateBounds" />
          </mxGeometry>
        </mxCell>
        <mxCell id="2b4e8129b02d487f-4" value="Fabricantes e Importadores" style="swimlane;html=1;startSize=20;horizontal=0;" parent="2b4e8129b02d487f-1" vertex="1" collapsed="1">
          <mxGeometry y="210" width="1200" height="40" as="geometry">
            <mxRectangle y="320" width="1200" height="150" as="alternateBounds" />
          </mxGeometry>
        </mxCell>
        <mxCell id="77CGy44zf38P_ugC092b-1" value="" style="edgeStyle=orthogonalEdgeStyle;rounded=0;orthogonalLoop=1;jettySize=auto;html=1;" parent="1" source="77CGy44zf38P_ugC092b-2" target="77CGy44zf38P_ugC092b-4" edge="1">
          <mxGeometry relative="1" as="geometry" />
        </mxCell>
        <mxCell id="77CGy44zf38P_ugC092b-2" value="" style="ellipse;whiteSpace=wrap;html=1;rounded=0;shadow=0;labelBackgroundColor=none;strokeWidth=1;fontFamily=Verdana;fontSize=8;align=center;" parent="1" vertex="1">
          <mxGeometry x="140" y="148.38" width="30" height="30" as="geometry" />
        </mxCell>
        <mxCell id="77CGy44zf38P_ugC092b-3" value="" style="edgeStyle=orthogonalEdgeStyle;rounded=0;orthogonalLoop=1;jettySize=auto;html=1;" parent="1" source="77CGy44zf38P_ugC092b-4" target="77CGy44zf38P_ugC092b-6" edge="1">
          <mxGeometry relative="1" as="geometry" />
        </mxCell>
        <mxCell id="77CGy44zf38P_ugC092b-4" value="&lt;div&gt;Analisar histórico de pedidos de Selos de Conformidade&lt;/div&gt;" style="rounded=1;whiteSpace=wrap;html=1;shadow=0;labelBackgroundColor=none;strokeWidth=1;fontFamily=Verdana;fontSize=8;align=center;" parent="1" vertex="1">
          <mxGeometry x="210" y="140.01" width="90" height="46.75" as="geometry" />
        </mxCell>
        <mxCell id="77CGy44zf38P_ugC092b-5" value="" style="edgeStyle=orthogonalEdgeStyle;rounded=0;orthogonalLoop=1;jettySize=auto;html=1;" parent="1" source="77CGy44zf38P_ugC092b-6" target="77CGy44zf38P_ugC092b-8" edge="1">
          <mxGeometry relative="1" as="geometry" />
        </mxCell>
        <mxCell id="77CGy44zf38P_ugC092b-6" value="&lt;div&gt;Planejar processo de Impressão e Codificação (Tipos e Quantidades)&lt;/div&gt;" style="rounded=1;whiteSpace=wrap;html=1;shadow=0;labelBackgroundColor=none;strokeWidth=1;fontFamily=Verdana;fontSize=8;align=center;" parent="1" vertex="1">
          <mxGeometry x="340" y="140" width="90" height="46.75" as="geometry" />
        </mxCell>
        <mxCell id="77CGy44zf38P_ugC092b-7" value="" style="edgeStyle=orthogonalEdgeStyle;rounded=0;orthogonalLoop=1;jettySize=auto;html=1;" parent="1" source="77CGy44zf38P_ugC092b-8" target="77CGy44zf38P_ugC092b-10" edge="1">
          <mxGeometry relative="1" as="geometry" />
        </mxCell>
        <mxCell id="77CGy44zf38P_ugC092b-8" value="&lt;div&gt;Imprirmir Selos de Conformidade &lt;br&gt;(inclui CQ)&lt;/div&gt;" style="rounded=1;whiteSpace=wrap;html=1;shadow=0;labelBackgroundColor=none;strokeWidth=1;fontFamily=Verdana;fontSize=8;align=center;" parent="1" vertex="1">
          <mxGeometry x="470" y="140.01" width="90" height="46.75" as="geometry" />
        </mxCell>
        <mxCell id="77CGy44zf38P_ugC092b-9" value="" style="edgeStyle=orthogonalEdgeStyle;rounded=0;orthogonalLoop=1;jettySize=auto;html=1;" parent="1" source="77CGy44zf38P_ugC092b-10" target="77CGy44zf38P_ugC092b-12" edge="1">
          <mxGeometry relative="1" as="geometry" />
        </mxCell>
        <mxCell id="77CGy44zf38P_ugC092b-10" value="&lt;div&gt;Codificar Selos de Conformidade&lt;/div&gt;&lt;div&gt;(inclui CQ)&lt;/div&gt;" style="rounded=1;whiteSpace=wrap;html=1;shadow=0;labelBackgroundColor=none;strokeWidth=1;fontFamily=Verdana;fontSize=8;align=center;" parent="1" vertex="1">
          <mxGeometry x="600" y="140" width="90" height="46.75" as="geometry" />
        </mxCell>
        <mxCell id="77CGy44zf38P_ugC092b-11" value="" style="edgeStyle=orthogonalEdgeStyle;rounded=0;orthogonalLoop=1;jettySize=auto;html=1;entryX=0;entryY=0.5;entryDx=0;entryDy=0;" parent="1" source="77CGy44zf38P_ugC092b-12" target="77CGy44zf38P_ugC092b-14" edge="1">
          <mxGeometry relative="1" as="geometry">
            <mxPoint x="830" y="198.38" as="targetPoint" />
          </mxGeometry>
        </mxCell>
        <mxCell id="77CGy44zf38P_ugC092b-12" value="&lt;div&gt;Empacotar Selos de Conformidade&lt;/div&gt;" style="rounded=1;whiteSpace=wrap;html=1;shadow=0;labelBackgroundColor=none;strokeWidth=1;fontFamily=Verdana;fontSize=8;align=center;" parent="1" vertex="1">
          <mxGeometry x="730" y="140" width="90" height="46.75" as="geometry" />
        </mxCell>
        <mxCell id="77CGy44zf38P_ugC092b-13" value="" style="edgeStyle=orthogonalEdgeStyle;rounded=0;orthogonalLoop=1;jettySize=auto;html=1;" parent="1" source="77CGy44zf38P_ugC092b-14" target="77CGy44zf38P_ugC092b-16" edge="1">
          <mxGeometry relative="1" as="geometry" />
        </mxCell>
        <mxCell id="77CGy44zf38P_ugC092b-14" value="Proceder Logística Interna (enviar e receber)" style="rounded=1;whiteSpace=wrap;html=1;shadow=0;labelBackgroundColor=none;strokeWidth=1;fontFamily=Verdana;fontSize=8;align=center;" parent="1" vertex="1">
          <mxGeometry x="860" y="140" width="90" height="46.75" as="geometry" />
        </mxCell>
        <mxCell id="77CGy44zf38P_ugC092b-15" value="" style="edgeStyle=orthogonalEdgeStyle;rounded=0;orthogonalLoop=1;jettySize=auto;html=1;" parent="1" source="77CGy44zf38P_ugC092b-16" target="77CGy44zf38P_ugC092b-18" edge="1">
          <mxGeometry relative="1" as="geometry" />
        </mxCell>
        <mxCell id="77CGy44zf38P_ugC092b-16" value="Controle de Qualidade Final" style="rounded=1;whiteSpace=wrap;html=1;shadow=0;labelBackgroundColor=none;strokeWidth=1;fontFamily=Verdana;fontSize=8;align=center;" parent="1" vertex="1">
          <mxGeometry x="990" y="140" width="90" height="46.75" as="geometry" />
        </mxCell>
        <mxCell id="77CGy44zf38P_ugC092b-17" value="" style="edgeStyle=orthogonalEdgeStyle;rounded=0;orthogonalLoop=1;jettySize=auto;html=1;entryX=0;entryY=0.5;entryDx=0;entryDy=0;" parent="1" source="77CGy44zf38P_ugC092b-18" target="77CGy44zf38P_ugC092b-19" edge="1">
          <mxGeometry relative="1" as="geometry">
            <mxPoint x="1250" y="163.38" as="targetPoint" />
          </mxGeometry>
        </mxCell>
        <mxCell id="77CGy44zf38P_ugC092b-18" value="Armazenar Selos de Conformidade Prontos" style="rounded=1;whiteSpace=wrap;html=1;shadow=0;labelBackgroundColor=none;strokeWidth=1;fontFamily=Verdana;fontSize=8;align=center;" parent="1" vertex="1">
          <mxGeometry x="1120" y="140" width="90" height="46.75" as="geometry" />
        </mxCell>
      </root>
    </mxGraphModel>
  </diagram>
</mxfile>
